HIERARCHY
ROOT Game_engine
{
	OFFSET 	 0.0	 0.0	 0.0
	CHANNELS 6 Xposition Yposition Zposition Xrotation Yrotation Zrotation 
	JOINT Root
	{
		OFFSET 	 0.0	 0.339374542236	 -10.5138683319
		CHANNELS 3 Xrotation Yrotation Zrotation 
		JOINT pelvis
		{
			OFFSET 	 107.809247971	 3.47678780556	 0.0
			CHANNELS 3 Xrotation Yrotation Zrotation 
			JOINT spine_01
			{
				OFFSET 	 0.0	 10.0627378516	 -1.66886817698e-06
				CHANNELS 3 Xrotation Yrotation Zrotation 
				JOINT spine_02
				{
					OFFSET 	 0.0	 7.84746537454	 -1.16063961109e-06
					CHANNELS 3 Xrotation Yrotation Zrotation 
					JOINT spine_03
					{
						OFFSET 	 0.0	 7.16191049562	 -1.10969204492e-06
						CHANNELS 3 Xrotation Yrotation Zrotation 
						JOINT clavicle_l
						{
							OFFSET 	 2.56189521895	 28.3995130651	 10.8759012002
							CHANNELS 3 Xrotation Yrotation Zrotation 
							JOINT upperarm_l
							{
								OFFSET 	 9.5682201362e-06	 18.6598545531	 -2.37274608225e-07
								CHANNELS 3 Xrotation Yrotation Zrotation 
								JOINT lowerarm_l
								{
									OFFSET 	 -9.48830873426e-06	 28.7900723861	 7.63552739924e-07
									CHANNELS 3 Xrotation Yrotation Zrotation 
									JOINT hand_l
									{
										OFFSET 	 5.47395018202e-08	 29.9518328485	 1.27410526574e-09
										CHANNELS 3 Xrotation Yrotation Zrotation 
										JOINT index_01_l
										{
											OFFSET 	 -2.03181756969	 12.3161247267	 0.746931719872
											CHANNELS 3 Xrotation Yrotation Zrotation 
											JOINT index_02_l
											{
												OFFSET 	 6.32972941617e-06	 3.03451502031	 7.08285304185e-06
												CHANNELS 3 Xrotation Yrotation Zrotation 
												JOINT index_03_l
												{
													OFFSET 	 -6.69645244145e-06	 2.70636988826	 -6.73919124949e-06
													CHANNELS 3 Xrotation Yrotation Zrotation 
													End Site
													{
														OFFSET 	 0	 0	 0
													}
												}
											}
										}
										JOINT middle_01_l
										{
											OFFSET 	 -0.865603918272	 11.85687816	 -1.83202614235
											CHANNELS 3 Xrotation Yrotation Zrotation 
											JOINT middle_02_l
											{
												OFFSET 	 -4.08752426573e-06	 3.91242530764	 -8.51190922191e-06
												CHANNELS 3 Xrotation Yrotation Zrotation 
												JOINT middle_03_l
												{
													OFFSET 	 4.77986158209e-06	 3.22690202289	 8.17515459772e-06
													CHANNELS 3 Xrotation Yrotation Zrotation 
													End Site
													{
														OFFSET 	 0	 0	 0
													}
												}
											}
										}
										JOINT pinky_01_l
										{
											OFFSET 	 2.09170407061	 9.84011855447	 -4.73726615495
											CHANNELS 3 Xrotation Yrotation Zrotation 
											JOINT pinky_02_l
											{
												OFFSET 	 1.91988647202e-09	 2.5106397019	 4.25622204148e-09
												CHANNELS 3 Xrotation Yrotation Zrotation 
												JOINT pinky_03_l
												{
													OFFSET 	 -4.0247627453e-09	 1.81945589054	 5.32160981948e-10
													CHANNELS 3 Xrotation Yrotation Zrotation 
													End Site
													{
														OFFSET 	 0	 0	 0
													}
												}
											}
										}
										JOINT ring_01_l
										{
											OFFSET 	 0.449828457351	 10.9318750402	 -3.6284102297
											CHANNELS 3 Xrotation Yrotation Zrotation 
											JOINT ring_02_l
											{
												OFFSET 	 2.91605196878e-06	 3.45689244135	 8.97795779053e-06
												CHANNELS 3 Xrotation Yrotation Zrotation 
												JOINT ring_03_l
												{
													OFFSET 	 1.15960752112e-08	 2.91289447909	 5.5210591654e-09
													CHANNELS 3 Xrotation Yrotation Zrotation 
													End Site
													{
														OFFSET 	 0	 0	 0
													}
												}
											}
										}
										JOINT thumb_01_l
										{
											OFFSET 	 -1.21134188405	 4.69170449457	 2.08615443138
											CHANNELS 3 Xrotation Yrotation Zrotation 
											JOINT thumb_02_l
											{
												OFFSET 	 8.83499845727e-06	 3.59463546462	 -3.9451083711e-06
												CHANNELS 3 Xrotation Yrotation Zrotation 
												JOINT thumb_03_l
												{
													OFFSET 	 -7.96777754886e-09	 4.27094625965	 -1.77141856739e-08
													CHANNELS 3 Xrotation Yrotation Zrotation 
													End Site
													{
														OFFSET 	 0	 0	 0
													}
												}
											}
										}
									}
								}
							}
						}
						JOINT clavicle_r
						{
							OFFSET 	 -2.5618952836	 28.3995130589	 10.875901201
							CHANNELS 3 Xrotation Yrotation Zrotation 
							JOINT upperarm_r
							{
								OFFSET 	 -9.5682201362e-06	 18.6598545531	 -2.37274608225e-07
								CHANNELS 3 Xrotation Yrotation Zrotation 
								JOINT lowerarm_r
								{
									OFFSET 	 9.48830873426e-06	 28.7900723861	 7.63552739924e-07
									CHANNELS 3 Xrotation Yrotation Zrotation 
									JOINT hand_r
									{
										OFFSET 	 -9.3163668069e-06	 29.9518288281	 -1.66735374396e-06
										CHANNELS 3 Xrotation Yrotation Zrotation 
										JOINT index_01_r
										{
											OFFSET 	 2.0318467584	 12.3161198963	 0.746921515634
											CHANNELS 3 Xrotation Yrotation Zrotation 
											JOINT index_02_r
											{
												OFFSET 	 6.48576303774e-09	 3.0345037356	 -2.65107047426e-09
												CHANNELS 3 Xrotation Yrotation Zrotation 
												JOINT index_03_r
												{
													OFFSET 	 6.69246636775e-06	 2.70638108172	 -6.73613920199e-06
													CHANNELS 3 Xrotation Yrotation Zrotation 
													End Site
													{
														OFFSET 	 0	 0	 0
													}
												}
											}
										}
										JOINT middle_01_r
										{
											OFFSET 	 0.865631536829	 11.8568731757	 -1.83203768953
											CHANNELS 3 Xrotation Yrotation Zrotation 
											JOINT middle_02_r
											{
												OFFSET 	 -6.58011423127e-09	 3.91242803371	 1.70745551031e-08
												CHANNELS 3 Xrotation Yrotation Zrotation 
												JOINT middle_03_r
												{
													OFFSET 	 4.14716261332e-09	 3.22689973019	 3.70757646806e-09
													CHANNELS 3 Xrotation Yrotation Zrotation 
													End Site
													{
														OFFSET 	 0	 0	 0
													}
												}
											}
										}
										JOINT pinky_01_r
										{
											OFFSET 	 -2.09167963738	 9.84011841981	 -4.73727460166
											CHANNELS 3 Xrotation Yrotation Zrotation 
											JOINT pinky_02_r
											{
												OFFSET 	 3.09035137924e-06	 2.51063962359	 -9.01533429243e-06
												CHANNELS 3 Xrotation Yrotation Zrotation 
												JOINT pinky_03_r
												{
													OFFSET 	 3.42428149835e-06	 1.81945538364	 -8.89538412707e-06
													CHANNELS 3 Xrotation Yrotation Zrotation 
													End Site
													{
														OFFSET 	 0	 0	 0
													}
												}
											}
										}
										JOINT ring_01_r
										{
											OFFSET 	 -0.449817420327	 10.9318737615	 -3.62840877239
											CHANNELS 3 Xrotation Yrotation Zrotation 
											JOINT ring_02_r
											{
												OFFSET 	 5.84669161974e-06	 3.45688751982	 -1.80098364666e-05
												CHANNELS 3 Xrotation Yrotation Zrotation 
												JOINT ring_03_r
												{
													OFFSET 	 -3.7757733562e-06	 2.91288726233	 8.67575572272e-06
													CHANNELS 3 Xrotation Yrotation Zrotation 
													End Site
													{
														OFFSET 	 0	 0	 0
													}
												}
											}
										}
										JOINT thumb_01_r
										{
											OFFSET 	 1.21136788704	 4.69170132495	 2.08613905488
											CHANNELS 3 Xrotation Yrotation Zrotation 
											JOINT thumb_02_r
											{
												OFFSET 	 -2.93618089842e-06	 3.59464476451	 -1.29502964796e-06
												CHANNELS 3 Xrotation Yrotation Zrotation 
												JOINT thumb_03_r
												{
													OFFSET 	 9.68370272858e-09	 4.27095449992	 3.95981025747e-08
													CHANNELS 3 Xrotation Yrotation Zrotation 
													End Site
													{
														OFFSET 	 0	 0	 0
													}
												}
											}
										}
									}
								}
							}
						}
						JOINT neck_01
						{
							OFFSET 	 -4.27600689049e-08	 36.9755427287	 10.1684196326
							CHANNELS 3 Xrotation Yrotation Zrotation 
							JOINT head
							{
								OFFSET 	 2.73402501946e-16	 10.6674118342	 -2.67354413275e-06
								CHANNELS 3 Xrotation Yrotation Zrotation 
								End Site
								{
									OFFSET 	 0	 0	 0
								}
							}
						}
					}
				}
			}
			JOINT thigh_l
			{
				OFFSET 	 12.4257910252	 -1.2128207549	 -1.67453759992
				CHANNELS 3 Xrotation Yrotation Zrotation 
				JOINT calf_l
				{
					OFFSET 	 9.25474119562e-08	 47.373381478	 4.57734992132e-07
					CHANNELS 3 Xrotation Yrotation Zrotation 
					JOINT foot_l
					{
						OFFSET 	 2.19880313956e-08	 51.4141463265	 6.55346943379e-08
						CHANNELS 3 Xrotation Yrotation Zrotation 
						JOINT ball_l
						{
							OFFSET 	 -2.6406745679e-08	 16.3156575518	 4.73433400816e-07
							CHANNELS 3 Xrotation Yrotation Zrotation 
							End Site
							{
								OFFSET 	 0	 0	 0
							}
						}
					}
				}
			}
			JOINT thigh_r
			{
				OFFSET 	 -12.4257910252	 -1.2128207549	 -1.67453759992
				CHANNELS 3 Xrotation Yrotation Zrotation 
				JOINT calf_r
				{
					OFFSET 	 -3.70578101538e-08	 47.3733710424	 2.9665243928e-07
					CHANNELS 3 Xrotation Yrotation Zrotation 
					JOINT foot_r
					{
						OFFSET 	 -2.29081353886e-08	 51.4141463211	 -4.08163325361e-08
						CHANNELS 3 Xrotation Yrotation Zrotation 
						JOINT ball_r
						{
							OFFSET 	 -1.01539776587e-08	 16.3156542591	 1.70937830557e-08
							CHANNELS 3 Xrotation Yrotation Zrotation 
							End Site
							{
								OFFSET 	 0	 0	 0
							}
						}
					}
				}
			}
		}
	}
}

MOTION
Frames: 1
Frame Time: 0.013889
-6.64223175715 -1.47248348913 -2.05775237221 180.0 -72.9019253593 180.0 -0.0 90.0 90.0 -90.7880717641 23.7722510279 -90.5966748307 27.250658691 -1.78268498037e-30 -6.45637423668e-31 -20.3910943705 -1.23033704023e-31 3.30985117559e-31 5.5636743999 -9.60256787979e-09 -6.88999871718e-08 16.6971031957 -0.878644919293 -113.01352427 41.7669849251 36.1358278088 -51.709865914 33.2105257482 4.16952245856e-05 -2.71902845755e-05 15.7520870493 40.3904018915 -11.4362882249 -7.94147528672 17.41059723 -6.82764622421 -1.86257933735 -3.26074505427 -2.31131776612 5.18792399445 3.69823445981 -5.10077012591 -2.53646735147 32.9083165691 -11.1381671473 0.804227670473 -4.29039616714 3.69092974486 6.19024806301 5.09660810352 -5.13968050088 -8.36644109186 40.346409684 -6.93079199179 1.09214635657 -1.98871457453 2.54254950117 -0.413494000611 1.20020555012 -1.21566573579 -1.5817385296 40.4869365993 -12.2871006586 0.905437709738 -4.87212900716 5.09791151922 5.48763343327 5.88975294093 -5.82770884359 -140.086381364 39.2410353427 -153.933673579 68.9658577997 20.3553320956 -43.321752332 9.26494696465 18.063335568 9.09153298827 16.3580579681 6.89446032162 117.328908425 29.5429724923 -32.7212648242 46.9216250027 31.331359559 5.01964805973e-05 -3.33900726843e-05 15.7521458331 -40.3903805291 11.4364416349 -7.94174378816 -17.4104326952 6.82736955981 -1.86205664918 3.26010731204 2.31155475658 5.18754725478 -3.69777696834 5.10054716188 -2.5364234276 -32.9083955727 11.1381391406 0.803931662731 4.2906267656 -3.69099581214 6.19052600356 -5.09679178253 5.13983470456 -8.36634759401 -40.3464300498 6.93089390514 1.09170705889 1.98883944793 -2.54282899169 -0.413274405692 -1.20025928134 1.2159166497 -1.58213659461 -40.4868888124 12.2867591196 0.905807056984 4.8719085347 -5.09790347623 5.48714482046 -5.8895158768 5.82762236068 -140.084371695 -39.2442959332 153.927240785 68.9501356851 -20.3390735938 43.318145428 9.26876819026 -18.0690071669 -9.08682470691 18.6785870593 4.07099469688 -2.21117318575 -15.4385669409 -5.64777178778e-09 -1.55974632117e-09 -158.214234989 -13.9951779187 -1.26799807154 15.7125807096 -2.09316336322e-07 -1.8535742301e-06 -69.8502820577 0.138617868836 0.734174402693 -31.0394038973 1.72624033837 1.5176201999 -163.677195657 16.2674914193 6.91794406586 24.7749923663 -2.80070357025e-07 -3.53093516371e-06 -67.9605315202 3.94487877474 -1.5121117067 -31.0393261264 -1.72623684959 -1.51762358472
